<?xml version="1.0" standalone="no"?>
<!DOCTYPE svg PUBLIC "-//W3C//DTD SVG 1.1//EN" "http://www.w3.org/Graphics/SVG/1.1/DTD/svg11.dtd" >
<svg xmlns="http://www.w3.org/2000/svg">
<metadata></metadata>
<defs>
<font id="rujis_handwriting_fontregular" horiz-adv-x="903" >
<font-face units-per-em="2048" ascent="1638" descent="-410" />
<missing-glyph horiz-adv-x="840" />
<glyph horiz-adv-x="0" />
<glyph unicode="&#xd;" horiz-adv-x="0" />
<glyph horiz-adv-x="0" />
<glyph horiz-adv-x="0" />
<glyph unicode=" "  horiz-adv-x="840" />
<glyph unicode="&#x09;" horiz-adv-x="840" />
<glyph unicode="&#xa0;" horiz-adv-x="840" />
<glyph unicode="!" horiz-adv-x="571" d="M189 987l42 147l-21 -42l42 714v21l84 21l21 -42v-714l-21 -126l-21 -252l-84 -21h-21zM231 378l42 21l63 -21h21l42 -189l-21 -21l-42 -42l-63 -21h-21z" />
<glyph unicode="&#x22;" horiz-adv-x="651" d="M52 1332l21 210l42 42h21l21 -21l21 -42v-231v-63l-21 -126l-42 -21l-21 -21v21h-21zM483 1491v21h84l21 -42l21 -273l-21 -126l-63 -21v21h-21z" />
<glyph unicode="#" horiz-adv-x="1365" d="M52 1155v21h84l42 21l84 -21l42 21v21l42 84l-105 21l-21 42v21l21 21l63 21l42 21l63 21l21 42l42 84v21l42 84h84v-126l-21 -63l-21 -21l21 -21l84 21l252 21l21 42l21 42l21 21l42 63l42 21l63 -21l21 -105l147 -21l21 -42v-84l-21 -21l-294 -42l-21 -21l-42 -42 l-21 -42l-21 -21l-21 -42l336 -21h21v-21l21 -84v-21l-504 -42l-21 -21l-21 -63l-21 -42l-21 -42v-21l-21 -63l-105 -21l-21 84v42l21 42l42 84l-231 21l-21 -42l-21 -42l-21 -42l-21 -42v-21l-21 -63l-63 -21l-21 21v126l21 42l21 42l42 63h-42v21h-105h-21zM430 1197 l252 -21l21 42l21 21l21 42l21 21l21 42h-63l-105 -21l-63 -21h-63h-21l-21 -63z" />
<glyph unicode="$" horiz-adv-x="756" d="M52 672l21 21l21 21l63 -21l21 -42l21 -42l42 -21l21 441l21 21l-42 21l-42 21l-42 21l-21 84v-42l-21 252v21l42 84l21 21l42 63l21 21h21l21 21l21 21l21 21l42 105l21 63l63 21l21 -42l21 -63l21 -42h42l42 -42l42 -21l42 -21l21 -42v-126l-21 -42l-63 -21l-21 21 l-21 42l-21 84l-84 21v-84l-21 -378l21 -42l42 -21l21 -42l42 -21l21 -42l21 -63v-378l-21 -42l-21 -21l-42 -21l-63 -21l-42 -42v-189l-21 -63l-105 -42l-21 21v-21l-21 252l-21 63h-21v21l-84 21v42l-42 21l-21 42v-21zM262 1302l21 -63l21 42l21 168l-42 -21l-21 -42v-84 zM430 525l42 42h21v252l-21 42l-21 63h-21v-378v-21z" />
<glyph unicode="%" horiz-adv-x="966" d="M52 462l42 42l21 21l21 42l42 42l21 21l42 63l21 21l42 63l21 21l42 63l21 21l21 42l21 42l21 42l21 42l42 42v21h-21h21h-21l-21 -21l-210 -42l-21 21v-21l-21 168l21 63v21l126 21l42 -21l42 -42h21l42 -105v-42l42 63h21l21 42l21 63l42 42l21 21l21 42l42 63v21 l21 21l84 21l21 -21l21 -42v-63l-21 -63l-42 -42l-21 -42l-42 -42l-21 -63v-21l-42 -42l-21 -21l-42 -42v-21l-42 -42l-21 -42l-21 -63l-21 -21l-42 -42v-21l-42 -42l-21 -42l-21 -21l-42 -42v-21l-42 -42l-21 -21l-42 -42v-21l-42 -42l-21 -21l-42 -42l-63 -21h-21z M661 798l21 21v21l210 21l21 -21v-84l-21 -105l-21 -63l-168 -21h-21z" />
<glyph unicode="&#x26;" horiz-adv-x="1113" d="M52 546l21 42l21 42l42 84l21 21l42 42l21 21l42 42l63 21l42 21l21 21v168l-21 84v-21l-21 378v21l21 42l42 84l21 21l42 42l42 21h273l42 -21l42 -21l21 -42l21 -63v-399v-21l-42 -42l-21 -42v-21l-42 -42l-21 -42l-21 -21l-63 -42l-21 -21h-21l-21 -63l21 -21l21 -42 l21 -42l21 -42l42 -21h21l42 63l21 21l21 42l42 42h42l42 -21l21 -42v-21l-21 -63l-42 -42l-21 -42l-42 -42l-21 -21l-42 -21l21 -42l42 -21l21 -42l42 -21l21 -42l21 -42h21v-21l42 -105l-42 -42l-21 -21l-63 21l-21 42l-42 21l-21 42l-21 42l-63 21v42l-42 21l-21 42 l-63 21l-21 -21l-42 -42l-21 -21l-63 -42l-21 -21l-42 -21l-252 -21v21l-84 21l-21 21v-21zM199 441h189l42 21l42 21l42 42l21 21l42 42l42 21l-42 21l-21 63l-42 21l-21 42h-21l-42 -21l-84 -42l-21 -42l-42 -42l-21 -42l-42 -42zM514 1239l21 -105l21 -84h42l21 21l21 21 l42 42l21 21l21 42l21 42l21 21v273l-21 63h-105l-84 -21l-21 -42v21l-21 -273v-42z" />
<glyph unicode="'" horiz-adv-x="2048" d="M828 1811q56 54 97 81q18 12 34 19t28 5t18 -15.5t3 -41.5q-7 -57 -19.5 -122t-24.5 -120q-15 -65 -31 -128l-48 209z" />
<glyph unicode="(" horiz-adv-x="714" d="M52 1050l21 21l21 147l21 63l21 126l21 42l42 84l21 21l21 63l42 63l21 21l21 42l42 42l21 21l42 42l42 21h21l21 21l63 21l63 -21l21 -63l-42 -42l-21 -21l-63 -42l-21 -21l-42 -21l-21 -42l-42 -42l-21 -63l-21 -42l-21 -42l-21 -42l-21 -84l-21 -42l-21 -105v42 l-21 -189v105l-21 -798v-42l42 -63l21 -42l21 -42l21 -42l21 -42l21 -42l21 -41l42 -42l21 -42l21 -42l-21 -84h-105l-42 21l-21 42l-42 21l-21 42v42l-42 21l-21 41v84l-42 21l-21 63v21h-21z" />
<glyph unicode=")" horiz-adv-x="756" d="M52 2058l21 42l42 21h63l63 -21l21 -42l42 -21l42 -21l21 -42l42 -42l21 -42l42 -42h-21l42 -105l21 -21l21 -42l21 -42l42 -63l21 -42l21 -42l21 -84l21 -42l21 -63v-462l-21 -231l-21 -126l-21 -105l-21 -63l-21 -105l-21 -42l-21 -63l-42 -42l-21 -42l-21 -41l-21 -63 v-21l-42 -42l-21 -42l-42 -42l-21 -21l-63 -42l-21 -21l-63 -21v21h-21l-21 84l21 21l42 42h21l21 42l42 42l21 21l21 42l21 41l21 63l21 42l21 42l21 42l21 63l21 63l21 63l21 126l21 126l21 252v336l-21 42l-21 63l-21 63l-21 42v42l-42 21v63l-42 21l-21 42l-21 42 l-21 42l-21 84l-42 21l-21 42l-21 42h-42l-21 42l-42 21l-42 21z" />
<glyph unicode="*" horiz-adv-x="840" d="M52 1197l21 21l63 21l-21 21v105h84l63 -21l42 -42l42 147h63l21 -42l21 -126l42 42l21 21l42 42l105 21l21 -21l21 -21l-21 -63l-21 -21l21 -21l63 -21h21l21 -42v-21l-21 -21l-189 -42l21 -21l21 -42l21 -42l21 -42v-21l-21 -21h-63l-63 21l-21 42l-42 21l-21 -21 l-84 -42l-21 63l-21 -21l-42 -42l-21 -42l-42 -21l-21 21l-21 42l21 63l21 21l21 42l42 42l42 21h-231z" />
<glyph unicode="+" horiz-adv-x="945" d="M52 1008l21 21l105 21h84l42 -21h63h21l21 63l21 189l21 21l42 21h21l21 -21l21 -42v-168v-42l294 -21l21 -21l21 -42v-63l-21 -21l-357 -21l-21 -126l-21 -168l-21 -21l-63 -21l-21 21l-21 42v147l21 63l21 63l-126 21l-42 21h-126v21h-21z" />
<glyph unicode="," horiz-adv-x="546" d="M52 -167l21 21l42 21l42 42l42 21l21 42l21 41l21 21l21 42l21 42l21 42l21 231l42 84l21 21l84 -21v-357l-21 -21l-42 -42l-21 -42l-21 -62l-21 -21v-21v-21l-21 -21l-21 -21l-21 -21l-21 -21l-21 -21l-84 -42l-84 -21h-21z" />
<glyph unicode="-" d="M38 405v21h210l315 21l84 -21v21l147 -42h21v-21l21 -63v-21l-231 -42l-21 21h-420v21h-84h-21z" />
<glyph unicode="." horiz-adv-x="670" d="M188 210l42 21l42 21h21h21l168 -42h21v-21l42 -189l-63 -41l-21 -21l-84 -21l-147 -21v21h-21z" />
<glyph unicode="/" horiz-adv-x="1159" d="M214 483l21 21l21 42l21 42l21 42l42 84l42 21l21 42l21 42l21 42l21 42l21 42l42 63v21l42 84l21 21l21 42l21 63l21 42l21 42l42 84l21 21l21 42l21 42l21 42l21 42l42 63l21 21l42 63l105 21l42 -63l-21 21v-84l-42 -42l-21 -42l-21 -42l-42 -42l-21 -63l-21 -42v-21 l-42 -42v-21l-42 -42l-21 -63l-21 -42l-21 -63l-42 -42l-21 -63l-42 -42l-21 -42l-21 -42l-21 -42l-21 -42l-21 -63l-21 -42l-21 -21l-42 -42l-21 -42l-21 -63l-42 -42l-21 -105v-63l-84 -21h-21z" />
<glyph unicode="0" horiz-adv-x="1260" d="M52 1596l21 21h84l42 -21h21l21 21l21 42l21 42l21 21l42 42l42 21l126 -21h21l21 21l126 21l126 -21l42 -21l63 -42l42 -21l21 -42l21 -42l21 -63l21 -21l21 -42l21 -21l21 -42v-336l-21 -420v-63l21 -126l21 -42l42 -42l42 -42v-147l-21 -21h-63l-42 21l-21 42l-21 42 l-42 21v-21l-42 -42l-21 -63l-42 -21l-21 -21l-42 -21l-42 -21h-189l-147 21l-84 21l-42 21l-63 21l-21 63l-63 21l-21 84l-21 42l-21 63v-21l-21 420l21 378v21l42 105l-21 21l-42 21l-21 42zM241 546l21 -63l21 -63l42 -42l21 -42l42 -21l42 -21l84 -21l168 -21h63l42 21 l21 21l21 42l21 42l21 63v21l-21 42l-42 21l-21 42l-63 21l-21 42l-42 21l-21 42l-42 21l-21 42l-42 21l-21 63l-42 21l-21 42l-21 42l-21 63l-21 42l-42 21l-21 42l-42 42h-21l-21 -105v-504zM304 1365l21 -42l42 -21l21 -42l42 -21l21 -42l42 -21l21 -42l21 -42l21 -42 l42 -42l21 -42l21 -21l21 -42l21 -21l21 -42l42 -21l42 -42l42 -42l42 -21l42 -42l21 63l21 420v189l-21 42l-21 42v63l-42 21l-21 42l-21 42l-63 21l-21 42l-42 21h-21l-63 -42l-21 -21l-84 -21h-105h-21l-21 -63l-42 -42l-21 -105v-21z" />
<glyph unicode="1" horiz-adv-x="945" d="M52 105l21 21l63 21h-63l252 21l42 84l-21 -84l42 357v21v567l21 525l-63 -21l-21 -21l-147 -42l-21 63l21 21l42 42l42 21l42 21l42 21h21l21 21l63 21h21l42 -168l-21 147l42 -567v-357v-357l-21 -273v-21l336 -21l21 -42l21 -84l-42 -21h-735h-42z" />
<glyph unicode="2" horiz-adv-x="1302" d="M52 1407h21l21 63l42 63l21 21l42 42l21 21l42 63l42 21l42 21l231 21l63 -21h42l63 -42l42 -21l21 -42l21 -42l42 -84l21 -42l21 -42l21 -42v-441l-21 -42l-21 -42v-21l-42 -42v-21l-42 -42l-21 -21l-42 -42v-21l-42 -42l-21 -42l-42 -42l-21 -21l-42 -42l-21 -21 l-42 -42l-21 -42l105 -42l567 21l63 -21l21 -42v-42l-21 -42l21 21l-189 -42l147 21l-714 -42h-21l-210 -21l-63 21l-21 63l21 63l21 21l42 42l21 21l42 63l21 21l42 42l21 21l21 42l42 42l21 21l42 42v21l42 42l21 21l42 63l21 21l21 42l21 21l42 42l21 63l21 21v294 l-21 105l-42 21l-21 42l-21 63l-42 21l-21 42l-42 21h-105l-42 -21l-42 -21l-42 -21l-42 -21l-42 -42l-21 -42l-42 -42l-21 -42l-42 -21h-63z" />
<glyph unicode="3" horiz-adv-x="1134" d="M52 1659l21 42l126 21h483l63 -21l42 -21l63 -21l84 -21l42 -42l21 -42v-84v-21l-42 -21l-42 -21l-42 -21l-42 -42l-21 -21l-63 -21l-21 -21l-42 -21l-126 -42v-21l63 -21l63 -21l42 -21l42 -42l42 -21l21 -42l42 -21l42 -42l21 -42l42 -42l21 -42l42 -21h-21l42 -126 l-21 84l42 -462l-21 -42l-21 -21l-42 -42l-21 -21l-42 -21l-42 -21l-105 -42l42 21l-441 -42l-21 21l-126 21l-21 42l-63 21l-21 21v-21l-21 147l21 21h63l63 -21l42 -21l63 -21l42 -21l63 -21h210l63 21l84 21l42 21l21 21l21 42v210l-21 126l-21 63l-42 21l-21 42l-42 21 v42l-42 21l-21 42l-63 21l-42 21l-63 21l-42 21l-42 21h-63l-21 42h-42v21h-21l-21 126l21 21l42 21l42 21l63 21l42 21l42 21l42 21l42 21h42l42 42l42 21v42l-84 21h42l-609 21l-21 21z" />
<glyph unicode="4" horiz-adv-x="1113" d="M52 1155l21 42l21 147l21 105l21 63l21 42l21 63l21 126l21 42l42 84l42 21h21l21 -42v-105l-21 -63l-21 -84l-21 -105l-21 -63l-21 -42l-21 -126v-63l42 -21l63 -42v21l168 -42l42 546v21l63 21l42 -63l-21 63l42 -546l336 -42h42l21 -42v-63l-21 -21l-399 -21l-21 -231 v-630l-21 -63l-42 -21h-84l-21 42v651l21 63l21 189l-189 21l-84 21l-42 21l-42 21h-42v21h-21z" />
<glyph unicode="5" horiz-adv-x="987" d="M52 1218l42 126l21 21l42 189l-21 -84l42 273v21l21 21l651 21l63 -21l21 -42v-21l-21 -63h-63h-504l-21 -126l-21 -63l-21 -147l-21 -42l-21 -42l-21 -63v-105h63l168 21l42 21h168l42 -42l42 -21l21 -42l42 -21l21 -42l21 -42l21 -84l21 -105l21 -63l-21 -252l-42 -42 l-21 -42l-42 -42l-21 -42l-21 -42l-21 -42l-42 -21l-84 -21l21 21l-252 -42l-21 42l-63 21l-42 21l-63 21l-21 42l-42 21l-21 84l21 63h84l42 -21l21 -21l42 -21l42 -21l42 -42v21l126 -42l-84 21h189l42 42l21 63v21l42 42h21l21 84v105l-21 63l-21 147h-42l-21 42l-21 42 l-84 21h-21l-294 -42l-21 -21h-21l-105 -42l-21 42v-21z" />
<glyph unicode="6" horiz-adv-x="966" d="M52 945l21 42l21 84l21 105l21 84l21 42l21 21l42 63l-21 -21l42 126l21 21l21 42l21 42l42 63l21 21l42 42l21 21l210 21h21v-21l21 -42v-21l-126 -42l-21 -21l-21 -21l-42 -21l-21 -42l-21 -42l-21 -42l-21 -42l-21 -42l-21 -63l-21 -42l-21 -42l-21 -84l-21 -105 l-21 -42l-21 -63v-63v-21l21 21l21 21l21 21l336 21l42 -21l42 -42l21 -21l21 -42l42 -21l42 -42l21 -42l21 -42l21 -42l21 -42v-168l-21 -63l-21 -84l-42 -42l-21 -21l-42 -42l-21 -21l-42 -21l-42 -21h-336l-84 21h-42v21h-21l-21 84l-21 21l-21 147v-84l-21 357l-21 84 v-21zM241 462l42 -105v-42l42 -63l84 -21h168l42 21l21 21l42 42l21 21l21 42l42 126l-21 -42v105l-42 21l-21 63l-42 21l-21 42l-42 21h21l-210 21l-21 -21h-105h-21v-252v-21z" />
<glyph unicode="7" horiz-adv-x="1323" d="M52 1785l21 21l105 21l126 21h546l189 -21l147 -21l42 -21l42 -42v-126l-21 -21l-42 -21l-21 -42l-42 -42l-21 -21l-42 -42l-21 -21l-42 -42l-21 -21l-42 -42l-21 -21l-42 -21l-21 -42l-42 -42l-21 -42l-21 -42l-21 -42l-42 -42l-21 -63l-21 -63l-42 -42l-21 -63l-21 -63 l-21 -42l-21 -63l-21 -42l-21 -63l-21 -105l-21 -84l-21 -42l-21 -147l-21 -21h-63l-42 21v231l21 84l21 105l21 84l21 42l21 42l21 42l21 42l21 63l21 42l21 42l42 105l21 21l21 21l42 84l21 21l21 42l42 63l21 21l21 42l42 42l42 21l42 42l21 21l42 42l21 21l42 42l21 21 l-21 21h42l-252 21h189l-630 21h-21l-168 -21v21h-84h-21z" />
<glyph unicode="8" horiz-adv-x="966" d="M52 609l21 84l21 84l21 21l21 42l21 42l42 105l21 21l42 42l21 21v21v42l-42 21l-42 21l-21 42l-21 42l-21 63v-21l-21 210v21l21 42l21 42l21 21l21 42l21 21l42 42l147 21l84 21l168 21h21v-21h21l63 -42l42 -63l21 -42l21 -63l21 -42v-147l-21 -42l-21 -84l-21 -21 l-42 -42l-21 -21l-42 -42l-21 -21l-63 -42v-21l42 -21l42 -21l42 -21l21 -42l42 -21l21 -42l42 -63l21 -42l21 -42v-273v-42l-42 -42l-21 -42l-42 -42l-21 -42v-21l-42 -21h-21l-231 -42l-21 -21l-21 21l-126 21l-21 21l-21 42l-42 21h-21v21l-84 21l-21 42l-42 21v-21z M199 504l21 -21l42 -21l21 -21l42 -21l63 -42l42 -21l42 -21h168l21 21l21 42l21 21l21 42l21 42l21 42v105l-21 42l-21 42l-21 63l-42 21l-21 42l-42 21h-42l-21 42l-63 21h-21l-63 -21l-21 -21l-42 -42l-21 -42l-21 -42l-21 -63l-21 -42l-21 -42zM283 1386l21 -42l42 -63 l21 -42l42 -21l63 -21l42 21l42 21l42 21l21 21l42 42l21 21l42 147l-21 -84v168l-42 21l-21 42h-84l-168 -21l-63 -42l-21 -21z" />
<glyph unicode="9" horiz-adv-x="777" d="M52 1302l21 42l21 42l21 42l21 21l42 84l21 21l42 42h21l42 42h315l21 -42l42 -21l21 -42l21 -42v-378l-21 -168l-21 -42l-21 -126l-21 -105v-21l-21 -126l-42 -42l-21 -84l-21 -42l-21 -42l-21 -42l-42 -42l-21 -42l-21 -42h-42l-21 126l21 21l21 42l21 42l21 42l21 84 l21 42l21 42l21 126l21 84h-42h-252l-42 21l-42 21l-63 21l-21 42v-21zM220 1008l21 -21l42 -21h168l21 21l21 21l21 42l21 21l42 42l-21 -21l42 315l-42 21l-21 42l-126 21h-21l-63 -42l-21 -42v-21l-42 -42l-21 -42z" />
<glyph unicode=":" horiz-adv-x="603" d="M209 345v21h126l63 -21l21 -126l-21 -63l-147 -21v21h-21zM230 1332v21h126h21l42 -210l-42 -21l-63 -21l-63 21z" />
<glyph unicode=";" horiz-adv-x="622" d="M187 240l21 42l42 42v21l42 84l21 63v21l21 21l84 21l21 -21v-105l-21 -105v-21l-42 -42l-21 -21l-42 -42l-21 -42l-63 -21h-21zM313 1437v21h105l21 -21v-168l-84 -21h-21z" />
<glyph unicode="&#x3c;" d="M52 1008l21 21l21 21l42 42l21 21l42 42l42 21l21 21l42 42h63l42 42h42l42 42l42 21l42 21l42 21l126 21l84 -21v-84l-21 -21l-147 -42l-21 -21l-63 -42l-21 -21l-84 -21l-21 -21l-42 -21l-42 -21l-21 -21l-42 -42l-21 -21l-42 -42l21 -21l21 -21l42 -21l63 -42l42 -21 l42 -21l21 -42l42 -21l42 -42l42 -21l63 -21l42 -21l21 -21l42 -21l21 -42l42 -63l-21 -21v-21l-105 -42l-21 21l-21 42l-42 21h21l-147 21l-21 21l-21 42l-42 21l-21 42h-42l-21 42h-21v21l-84 21l-21 42l-63 21l-21 42l-42 21l-21 42v-21z" />
<glyph unicode="=" horiz-adv-x="1029" d="M52 1281l42 63h609l189 -21l42 -21l42 -21v-42v-63l-42 -21h-294l-21 21l-441 21h-21l-63 -21l-21 21zM94 777l21 21l42 21h777l21 -42l21 -21l-21 -63l-42 -21l-651 -21v21h-126h-21z" />
<glyph unicode="&#x3e;" horiz-adv-x="966" d="M52 1491l42 21h105l105 -42l42 -42l21 -21l42 -21l21 -21l42 -21l63 -42l42 -21l42 -21l42 -42l42 -21l42 -21l42 -21l42 -21l42 -42h21v-21l21 -84v-21l-21 -21l-147 -42l-21 -21l-42 -21l-105 -21l-42 -21l-84 -42l-21 -21l-42 -42l-21 -21l-84 -21l-42 -21h-84l-42 21 v84l42 42l42 21l63 21l42 21l42 42l42 21l42 21l42 21l42 21l126 21v21l-21 42l-42 21l-63 21l-21 42l-63 21l-42 21l-21 42h-42l-21 42l-42 21l-42 21l-21 42h-63v21h-42h-21z" />
<glyph unicode="?" horiz-adv-x="756" d="M52 1680l21 21l42 21l42 42l21 21l399 21l42 -21l42 -42l21 -42l21 -126l-21 -126l-42 -42l-21 -21l-42 -42l-21 -42l-21 -21l-42 -42l-21 -21l-21 -21v-42v-21l-21 -21l-21 -63l-21 -42l-21 -126v63l-21 -231l-21 -21l-42 -21h-42l-42 21v231l21 63l21 63l21 42l21 105 l21 63l42 42v21l21 21l21 21l21 21l21 21l21 21l21 21l21 21l21 21l42 147h-42l-21 42h-126l-126 -21l-42 -21h-21l-21 -21l-21 -63l-63 -42zM283 378v21h105l21 -21v-84l-21 -105l-63 -21h-21z" />
<glyph unicode="@" horiz-adv-x="1239" d="M52 798l21 84l21 105l21 105l21 42l21 42l21 21l42 84l42 21l42 63l21 21l21 42l42 42h21l42 42l42 21l42 21l378 21h42l42 -42l42 -21l21 -42l42 -21l21 -42l21 -42l21 -42l21 -42v-525l-21 -42l-21 -84l-21 -42l-21 -42l-21 -63l-21 -63l-21 -42l-42 -21h-126h-42 l-21 42l-21 84l-42 -21l-21 -21l-42 -21l-42 -21h-189l-42 21h-42l-63 21l-21 42l-21 42v294l21 63l21 42l42 63l21 21l42 42l21 21l42 42l21 21l42 42l42 21l84 21l189 21l63 -21l42 -63l-42 -42l-21 -273v-147l21 -126l21 -21l21 63l21 42l42 84l-21 -42l42 588l-42 21 l-21 42l-21 42l-42 21h21l-273 21h-21l-42 -21l-42 -21l-21 -21l-63 -42l-21 -42l-42 -42l-21 -21l-42 -42l-21 -42l-42 -42l-21 -42l-21 -168v63l-21 -399v-42l21 -21l21 -42l21 -42l21 -42l21 -42l21 -21l21 -42l42 -21l21 -42h21v-21h21l63 -42l-42 21l357 -42l63 -21 l63 21h21l42 -125l-21 -21h-168l-294 21h-84l-63 20l-21 42l-42 21l-21 42l-42 21l-21 42l-42 21l-21 42l-21 42v42l-42 21v42l-42 21l-21 84v-42zM409 609l21 -21l42 -21h126h21l21 42l42 63l21 21l21 63l21 189l21 126h-63l-63 -21l-42 -21l-42 -42l-21 -42l-21 -21 l-42 -42l-21 -42l-21 -42z" />
<glyph unicode="A" horiz-adv-x="924" d="M52 147l21 84l21 63l21 42l21 42l21 63l21 63l21 63l21 105l21 147l21 42l21 105l42 126v21l42 189l21 21l21 105l21 42l21 42l21 42l42 105l84 21l42 -21l21 -42l21 -105v-21h21l21 -84h-21l42 -126l-21 84l42 -420l63 -42h21v-21h21l-21 -63l-63 -42v-42l21 -105 l21 -42l21 -189v-189l-21 -21h-63l-42 21l-21 126l-21 231l-21 42l-21 168h-252l-21 -105l-21 -42l-21 -105l-21 -42l-21 -84l-21 -42l-21 -42l-21 -42l-21 -42l-21 -84l-21 -21v-21v-21l-84 -42zM430 945l168 -21v273l-21 210h-21l-21 -42l-21 -105l-21 -42l-21 -105 l-21 -42z" />
<glyph unicode="B" horiz-adv-x="966" d="M52 315l42 231v21l42 231l-21 -105l42 315l21 315l21 441v21l63 21l21 -21l21 -147l273 -21l63 -21l42 -21l63 -21l42 -21l42 -21l42 -21l21 -42l21 -42v-63l-21 -105l-21 -63v-21l-42 -42l-21 -21l-42 -42l-21 -21l-84 -21l-21 -42l42 -21l42 -21l21 -42l21 -63l42 -21 l21 -42l42 -21l21 -42l21 -42v-63l-21 -42l-21 -42l-21 -42l-21 -42l-21 -42l-42 -42l-21 -42l-42 -42l-21 -21l-63 -42l-21 -21l-42 -42l-462 -21h-21zM199 273l210 -42l63 21l42 42l42 21l42 42l21 21l21 42l21 21l42 42l21 21l21 42l42 84l-42 21l-42 21l-21 63l-42 21 l-21 63l-42 21l-84 21l-63 21h-21h-126l-21 -126l-21 -231l-21 -105v-84zM283 1071h168l84 21h21l42 42l63 21l42 42l21 21l21 42l42 105l-42 21h21l-126 21l-21 42l-42 21l-63 21l-189 21h-21v-231v-63l-21 -42v-105z" />
<glyph unicode="C" horiz-adv-x="945" d="M52 945l42 84l21 63l21 63l21 63l21 21l21 42l21 63l42 42l21 21l42 63l21 21l42 42l21 21l42 42l42 21l42 21h231l63 -21l42 -21l21 -42v-84l-21 -21h-63l-42 21l-42 21h-126l-84 -42l-21 -21l-42 -42l-21 -42l-21 -21l-42 -42l-21 -84l-21 -42l-42 -42l-21 -42 l-21 -126v84l-21 -378v-42l42 -63l21 -42l21 -42l21 -42l21 -42l21 -42l21 -21l21 -42l42 -42h210l21 21l42 21v21l21 21l84 21h21l42 -84v63l-21 -126l-42 -42l-21 -21l-42 -21l-21 -21h-378l-42 21l-42 21v63l-42 21l-21 105h-21v21h-21l-21 84l-21 21l-42 21l-21 84v-21z " />
<glyph unicode="D" horiz-adv-x="987" d="M52 147l21 105l21 252l21 42l42 147l-21 -63l42 210l-21 -126l42 504l-21 21l21 357v21l63 21l21 -21l42 -21l42 -21l42 -21l147 -21l63 -21l63 -21l42 -42l42 -21l21 -42l21 -42l42 -42l21 -42l42 -21l21 -42v-462l-21 -42l-21 -42l-42 -42l-21 -84l-42 -42l-21 -42 l-21 -21l-42 -21l-21 -21l-42 -42l-21 -21l-42 -21l-21 -21l-42 -42l-21 -21l-42 -21l-42 -21l-42 -42l-21 -21l-42 -21l-63 -42l21 21l-168 -42l-21 21v-21zM262 252h21l42 42h21l42 42l42 21l42 42l63 21l42 63l42 21l42 42l21 21l21 42l42 105l21 21l21 63v336l-21 42 l-42 21l-21 42l-21 42v42l-42 21l-42 21l-63 21h-63l-147 21v-168l21 -336v-63l-21 -42l-21 -147v-21l-21 -84z" />
<glyph unicode="E" horiz-adv-x="1008" d="M52 105l42 147l-21 -63l42 462l21 84l-21 -21l42 357l-21 441l21 84l42 21h21v-21l42 -63h63l42 21l147 21l126 21h-21l273 21h21v-21l42 -84l-21 -21l-42 -21l-231 -21l-168 -21l-84 -21l-126 -42l21 -378h378l63 -21h21l42 -84l-42 -42l21 21l-315 -42l-42 21h-84 l-42 -21l-21 -126l-21 -420l-21 -84l336 -42l63 21l84 -21v-105l-21 -21l-609 -21v21h-21z" />
<glyph unicode="F" horiz-adv-x="1008" d="M52 924l21 567l21 21l42 42l651 21h42l21 -42v-42l-21 -42l-630 -42v-357l735 -21l21 -42v-63l-21 -42l21 21l-756 -42l-21 21l-21 -735v-105l-63 -21h-21z" />
<glyph unicode="G" horiz-adv-x="1302" d="M52 1029l21 84l21 105l21 63l21 42l21 63l42 42l21 21l42 42l21 21l42 42l42 21l42 42l42 21l42 21l399 21h21v-21l42 -126l-42 -21l-42 -21l-21 21l-21 42l-273 -21l-21 -21l-42 -21l-42 -42l-21 -21l-63 -42l-21 -42l-42 -42l-21 -63l-21 -42l-21 -84v42l-21 -525v-42 l21 -42l21 -42l21 -42l21 -42l42 -21l42 -21h252l21 21l42 63l21 21l21 84l21 63l21 63l21 42v42l-21 42l-21 63l-147 21l-105 21l-21 21l-63 21l-21 42v42l21 42l147 21l42 -21h147h63l63 -21l126 -21l63 -21l63 -21l42 -21l42 -42l21 -21l-21 -63l-42 -21l-126 -21l-21 42 l-42 21h-42v-42v-168l-21 -42l-21 -42l-21 -63l-21 -105l-21 -42l-21 -21l-42 -42l-21 -21l-42 -42l-21 -21l-42 -21h-315l-42 21l-42 21l-42 21l-21 42l-42 21l-21 42l-21 63l-21 42l-21 105v-42z" />
<glyph unicode="H" horiz-adv-x="1092" d="M52 357l42 1407v21l21 21l63 21l21 -21l21 -42l21 -798h147h378v441l-21 315v63l42 42h63l21 -42l21 -294l21 -504l42 -42l21 -21l-21 -63l-42 -42v-147l21 -63l21 -189l21 -42l21 -105l21 -168v-21l21 -84v-20l-105 -42l-21 21l-21 62l-21 189l-21 63l-21 126v-63 l-21 252v-168l-21 399h-294v21h-21h21h-21l-252 -42l-21 -21l-21 -483l-21 -314l-63 -21h-21l-21 398l21 483z" />
<glyph unicode="I" horiz-adv-x="1281" d="M57 1599l735 19l252 19l63 -19h21v-19l21 -38v-19l-21 -18l-84 -38l63 19l-525 -38l16 -1234h147l42 19l399 19l21 -19l21 -38v-19l-21 -37l-63 -19l-42 -19l-42 -19l-315 -19l105 19l-315 -38h-21h-21h-252l-63 19l-21 113l252 19l42 776l-21 18l5 459l-210 19h-42v19 h-84h-21z" />
<glyph unicode="J" horiz-adv-x="1113" d="M52 777l42 42h42l42 -21h-21l42 -147v-42l42 -126l21 -42l42 -42l21 -42l42 -21l21 -42l42 -21l21 -21l21 21l21 42l42 84l-21 -21l42 630v21l21 525l-63 21l-63 21l-42 21h-168v21h-21l-21 84v21l21 21l336 21h42l42 -21l21 -21l42 -21l126 -42l126 21l63 -21h21v-21 l21 -63v-21l-21 -21l-294 -42l-21 -504l-21 -42v-420l-21 -252l-42 -42l-21 -42l-21 -42l-21 -42l-21 -21h-147l-63 21l-21 42l-63 21l-21 42l-42 21l-21 42l-21 42l-42 21l-21 42l-21 126v-63z" />
<glyph unicode="K" horiz-adv-x="966" d="M52 1638l21 42l42 21l63 -21l42 -63h-21l42 -252l-21 210l42 -609v-21l21 42l21 42l21 42l42 42l42 21l21 42l42 63l42 21l42 42v21l21 21l21 21l21 21l21 21l21 21l21 21l21 21l21 21l21 21l126 21l21 -21l21 -42v-21l-21 -42l-21 -21l-42 -42l-21 -21l-63 -42l-21 -21 l-42 -42l-21 -42l-21 -21l-42 -42l-21 -21l-42 -42l-21 -21l-42 -42l-21 -42l-42 -42l-21 -42l-21 -21l-42 -21l21 -21l21 -42l21 -21l21 -42l21 -42l21 -21l21 -42l21 -42l21 -21l21 -42l21 -42l21 -42l21 -42l21 -42l21 -21l21 -42l21 -42l21 -42l42 -126l-21 -21l-42 -21 h-63l-63 21l-21 126l-42 21l-21 42l-21 42l-21 63l-21 42v42l-42 21l-21 42l-21 42l-21 42l-21 42l-21 42l-21 -483v-21l-84 -21h-21l-21 882l-21 441l-21 84v-21z" />
<glyph unicode="L" horiz-adv-x="1197" d="M52 1743v21h84l42 -42l-21 42l42 -399v-42l21 -1113h147h21l21 -21v21l504 -42h42l21 -21l21 21l42 42h42l21 -42l21 -42l21 -42l-21 -63l-42 -21h-189l-42 21l-483 21l-210 21h-21v21h-21h-21l-21 273z" />
<glyph unicode="M" horiz-adv-x="1323" d="M52 84l21 126l21 147l21 126l21 42l21 231l21 567l21 42l21 126l21 126l21 42l21 42l21 42l42 42h42l42 -21l21 -42l42 -126v-42l42 -84l21 -42l21 -42l21 -63l21 -126l21 -63l42 -63l21 -21l21 105l21 147l21 42l21 84l21 84l21 105l42 63l21 63v21l105 21l21 -21 l21 -42l21 -126l21 -63l21 -294l21 -105l21 -336l21 -63l21 -168l21 -231l21 -21v-21l42 -126l-21 105v-231l-21 -21l-42 -21h-21l-42 21l-21 105l-21 84v-21l-21 273l-42 21l-21 210l-21 42l-21 399l-21 231l-21 -84l-21 -42l-21 -168l-21 -63l-21 -126l-21 -63l-21 -42 l-21 -42l-42 -21h-42l-42 21l-42 21l-21 84l-21 84l-21 84l-21 42l-21 42l-21 63l-21 105l-21 84l-21 42v42l-42 -21l-21 -84l-21 -42l-21 -567l-21 -42v-42l-21 -252v63l-21 -231l-42 -42l-21 -126l-21 -42l-63 -20v20h-21z" />
<glyph unicode="N" horiz-adv-x="756" d="M52 504l21 945v21l42 63h105l21 -42l21 -126l21 -126l21 -84l21 -63l21 -63l21 -105l21 -84l21 -84l21 -42l21 -42l21 -63l21 -105l21 42l21 84l-21 -21l42 168l-21 -126l42 945v21l105 21l21 -21v-861l-21 -147v-210l-21 -84l-21 -168l-42 -21l-63 -21v21h-21l-21 84 l-42 21l-21 63l-21 42l-42 21l-21 63l-21 126l-21 42l-21 63l-21 63l-21 63l-21 168l-21 21l-21 -861l-42 -21l-42 -21v21h-21z" />
<glyph unicode="O" horiz-adv-x="1176" d="M52 966l21 84l21 63l21 63l42 84l21 21l21 63l42 42l21 21l21 42l42 42l21 21h21l21 21l21 21l21 21l21 21l21 21l21 21l21 21l63 21l126 -21l42 -21l63 -21l42 -21l42 -21l42 -42l42 -21l21 -42l42 -21l21 -42l42 -21l21 -42v-525l-21 -105l-21 -84l-21 -21v-21l-21 -21 l-21 -21l-21 -63l-42 -42l-21 -21l-42 -42l-21 -21l-42 -21l-21 -21l-42 -21l-21 -21l-42 -42l21 21l-273 -42l-21 42l-63 21l-42 21l-63 21l-42 21l-42 21l-21 42l-42 21l-21 42l-21 84v-21zM199 756l21 -126l21 -42l21 -84l42 -21l63 -21l42 -21l63 -42l-21 21l168 -42 l21 21l42 42l42 21l21 21l42 42l21 21l42 63l21 21l21 42l42 63l-21 -21l42 126l-21 -84l42 462l-21 63l-42 21l-21 42l-42 21l-21 42l-42 21l-42 21l-147 21h-21h-42l-42 -42l-21 -21l-42 -42l-21 -21l-42 -42l-21 -42l-21 -63l-42 -42l-21 -63l-21 -63l-21 -63l-21 -63 v-147z" />
<glyph unicode="P" horiz-adv-x="1008" d="M52 1743l42 63l63 21h-21l378 21l63 -21l63 -21l63 -21l42 -21l21 -21l42 -21l21 -21l42 -21l21 -42l21 -42l21 -126l21 -231l-42 -42l-21 -63l-21 -21l-63 -42l-21 -21l-21 -21l-42 -21l-42 -21l-63 -21l-21 -21l-399 -21v-252v-609v-21l-21 -21l-84 21l-21 588v-252z M199 1092h294l42 21l42 21l63 21l42 42l63 21l21 63l21 21v84l-21 126l-21 42l-21 42l-84 21l-21 42l-42 21l-63 21h-231l-63 -21z" />
<glyph unicode="Q" horiz-adv-x="1512" d="M52 273l21 84l-21 -21l42 609l-21 21l-21 105l21 21l42 126l21 21l42 63l21 21l42 42l21 21l42 42l21 21l42 63l21 21l42 42l21 21l42 42l42 21l42 42h252l42 -21l210 -21l105 -21l21 -42l42 -21l42 -42l21 -42l21 -84l21 -42l21 -42l21 -147l21 -105l21 -63l21 -84v-252 l-21 -126l-21 -63l-21 -42l-21 -168l-21 -21l-42 -42v-21l21 -21l21 -42l21 -42l21 -42v-146l-21 -21h-63l-42 21l-21 42l-21 42v41l-42 21l-21 -21l-63 -41l-21 -21l-42 -21l-42 -21h-462l-84 21l-42 21l-42 21h-42l-21 41l-42 21l-21 63l-84 21l-21 42l-21 42l-42 21z M199 441l42 -105l21 -42l42 -21l42 -21l63 -42l21 -42l21 -42l42 -21l42 -21l63 -21h294l63 21l21 21l42 42l63 21l21 21v21l-21 84l-42 21l-21 42l-42 21v84l42 42h42l21 -42l42 -21l42 -21l21 -42l42 126l21 21l21 63l21 105v210l-21 63l-21 126l-21 42l-21 105l-21 42 l-21 84l-21 84l-42 21l-84 21l-252 21l-63 42h-21l-42 -21l-21 -21l-63 -42l-21 -21l-42 -42l-21 -42l-21 -21l-42 -42l-21 -42l-21 -21l-42 -42l-21 -42l-42 -42l-21 -105v42l-21 -504l-21 -21l21 -84h-21z" />
<glyph unicode="R" d="M52 1365l21 315l42 42l42 21h336l63 -21l21 -21l42 -21l42 -42l42 -21l21 -42l42 -21l21 -42l21 -63l21 -126l21 -105v-84l-21 -42l-21 -42l-21 -42v-21l-42 -42l-21 -42l-42 -21l-63 -42v-21l-42 -21l-84 -42h-21l-63 -42l21 -21l42 -21l21 -42l42 -21l21 -42l42 -42 l21 -42l42 -21l21 -42l21 -42l42 -21l21 -42l21 -42l21 -84l42 -63l-21 -21v-21v-21l-105 -42l-21 42l-42 21l-21 63l-21 42l-21 42l-21 63l-42 21l-21 42l-21 42l-42 21l-21 42l-42 21l-21 42l-42 21l-21 42h-42l-21 42h-21v-546v-21l-105 -42l-21 21v-21l-21 840z M199 1323l21 -441h147l63 21l42 21l21 21l42 42l42 21l42 42l21 21l42 63l-21 -21l42 126l-21 21l-21 189l-42 21l-21 42h-42l-21 42l-42 21h-42v21h-189h-21l-21 -231z" />
<glyph unicode="S" horiz-adv-x="1155" d="M52 357l21 105l21 84h42l21 -42l21 -42l21 -42l42 -21l42 -42l42 -42l126 -42l126 21l63 21l21 42v105l-21 147l-21 42l-21 42v42l-42 21l-21 42l-21 42l-42 21l-21 42l-42 21l-63 21l-21 42l-42 21l-21 42l-42 21l-21 42l-42 21l-21 42h-21v21h-21l-21 84v-63l-21 294 l21 105l21 42l21 63l42 21l42 42l63 21h252l126 -21l42 -21l21 -21l42 -21l42 -42l42 -42l42 -42l42 -21l21 -42l21 -42l42 -42l42 -42l42 -42l21 -42v-42v-21l-84 -42l-21 21l-63 21l-21 42l-21 42l-42 21l-21 42l-21 42l-42 21l-21 42l-42 21l-21 42l-42 21l-42 21 l-126 21l-42 21l-105 -21l-21 -21h-21l-21 -42l-21 -42l-21 -126v63l21 -147l21 -42l42 -42l42 -42l42 -21l21 -42l42 -42l42 -21l42 -42l42 -21l42 -21l21 -42l42 -42l21 -42l21 -63h21v-21l42 -84l21 -42l21 -126v-210v-42l-42 -42l-21 -21l-42 -42l-21 -21l-105 -21 l-315 -21l-63 21l-21 42l-42 21v63l-63 21l-21 42l-21 84v21v-63z" />
<glyph unicode="T" horiz-adv-x="1323" d="M52 1743v21h84h-63l420 21h42h-357l525 -21l126 -21l-21 21l399 -42h42l21 -42v-63v-21l-42 -21h-420l-42 21h-126l-21 -672l-21 -252l-21 -210v-273l-42 -42l-21 -21l-84 21l-21 105l21 378l21 84l-21 -21l42 273l-21 -231l42 672l21 189l-42 21h-336l-63 21z" />
<glyph unicode="U" horiz-adv-x="1029" d="M52 1428l21 63l42 252l21 21h105l21 -42v-21l-21 -42l-21 -63v-21v-105l-21 -63v-252l21 -567l21 -126l21 -63l21 -42l42 -42l42 -21l21 -21l42 -21l42 -21l42 -21l21 -21l42 42l21 21l42 42l21 21l21 63l21 126l21 42l21 378l21 273l42 294l21 126l42 21h63l42 -42v-84 l-21 -168l-21 -189l-21 -42l-21 -252l-21 -399l-21 -147l-21 -63l-42 -42l-21 -21l-42 -42l-21 -42l-21 -21l-42 -21h-231l-42 21l-63 21l-21 42l-63 21l-21 42l-42 21l-21 42l-21 42l-21 42l-21 126v-63z" />
<glyph unicode="V" horiz-adv-x="1155" d="M52 1806v21h63l42 -21l21 -42l21 -168l21 -168l21 -42l21 -63l21 -126l21 -105l21 -84l21 -63l21 -42l21 -147l21 -126l21 -84l21 -42l42 -147h21l21 21l21 63l21 84l21 42l21 42l21 126l21 42l21 42v21v84l21 63l21 84l42 168l21 21l21 21l21 42l21 42l42 84v21l42 63 l21 63l21 63v21l105 21l21 -42v-126l-21 -63l-21 -42l-21 -42l-21 -42l-21 -42l-21 -42l-21 -42l-42 -42l-21 -63l-21 -84l-21 -126l-21 -126l-21 -42l-21 -42l-21 -126l-21 -42l-21 -84l-21 -42l-21 -84l-42 -42l-21 -63l-21 -42l-21 -42l-21 -42l-21 -21l-84 -21l-21 42 l-42 21l-21 42l-21 63l-21 126l-21 63l-21 105l-21 63l-21 147l-21 147l-21 63l-21 105l-21 84l-21 63l-21 147l-21 63l-21 168z" />
<glyph unicode="W" horiz-adv-x="1932" d="M52 1680l21 21l42 21h21l42 -21h-21l42 -105l21 -42l21 -84l21 -63l21 -84l21 -42l21 -42l21 -84l21 -294l21 -42l21 -189l21 -147l21 -126l21 105l21 42l21 84l21 42l21 63l21 105l21 42l21 42l21 21l21 42l42 84l42 21h84l42 -21l21 -42l21 -63l21 -42l21 -63l21 -126 l21 -42l21 -147l21 -105l21 -63l21 -63l42 -21h21l21 21l21 42l21 42l21 42l21 42l21 42l21 21l21 42l21 63l21 21l21 42l42 84l21 21l21 63l21 147l21 42l21 42l21 63l21 42l21 63l21 42l21 42l21 42l21 63l21 21l21 42l42 42v21l84 21l21 -21l21 -42v-84l-21 -63l-42 -42 l-21 -42l-21 -63l-21 -42l-21 -42l-21 -42l-21 -42l-21 -42l-21 -42l-21 -147l-21 -63l-21 -63l-42 -42l-21 -42l-21 -42l-21 -63l-21 -42l-21 -42l-42 -42l-21 -63l-21 -42l-21 -42v-21l-42 -42l-21 -42l-42 -42l-21 -21h-168l-42 21l-21 63l-42 21l-21 63l-21 42l-21 84 l-21 105l-21 168l-21 126v63l-42 -21l-21 -42l-21 -42l-21 -84l-21 -105l-21 -63l-21 -42l-21 -84l-21 -42l-21 -42l-42 -42l-21 -42l-21 -42l-42 -21l-63 -21l-21 42l-42 21l-21 126l-21 42l-21 126l-21 168l-21 168l-21 315l-21 84l-21 84l-21 84l-21 84l-21 63l-21 42z " />
<glyph unicode="X" horiz-adv-x="1155" d="M52 273l42 63l21 21l42 63l42 21l42 63l42 21l21 42l42 84l21 21l42 63l21 21l21 42l21 42l21 42v42l-21 42l-21 42l-21 63l-21 42l-21 63l-42 21l-21 105l-42 21l-21 63l-21 42l-21 84l-42 21l-21 42l-21 63l-21 42l-21 42l-21 42l21 105l42 21l42 -21l21 -42l42 -63 l21 -42l21 -84l21 -21l21 -42l42 -63l21 -42l21 -42l21 -63l21 -42l42 -42l21 -42l21 -42l42 -42l21 -21l42 63l21 21l21 42l21 63l21 42l21 42l21 42l21 42l21 42l21 21l21 42l21 63l42 63v21l21 21l105 21l21 -21v-84l-21 -63l-21 -42l-21 -63l-42 -42l-21 -42l-21 -42 l-21 -42l-21 -42l-21 -42l-21 -42l-21 -63l-21 -42l-21 -42l-42 -42l-21 -105l21 -21l21 -42l42 -21l21 -42l21 -63l42 -63v-42l42 -42l21 -42l21 -63l21 -63l21 -42l21 -42l21 -42l21 -21l21 -42l21 -63l-21 -63h-84l-84 21l-21 105l-21 42l-21 42l-21 42l-21 126l-42 21 l-21 42l-21 42l-21 42l-21 63l-21 63h-63l-21 -42l-21 -42l-42 -42l-21 -42l-42 -42l-21 -42l-21 -42l-42 -42l-21 -21l-42 -42l-21 -21l-42 -21l-21 -42l-42 -42l-21 -42l-63 -21l-21 21z" />
<glyph unicode="Y" horiz-adv-x="1134" d="M52 1722v21h105l21 -42l21 -42l21 -42l21 -42l42 -21l21 -42l21 -21v-21l42 -63v-42l42 -42l21 -42l42 -63l21 -42l42 -63h21l21 21l42 63l21 21l21 42l21 42l21 42l21 42l42 42l21 21l21 42l21 21l21 42l21 21l42 84v21h21l21 21l63 21h21v-21l42 -105l-21 -21l-42 -42 l-21 -63l-42 -42l-21 -42l-42 -42l-21 -21l-42 -42l-21 -42l-21 -42l-21 -42l-21 -42l-21 -21l-42 -42l-21 -42l-21 -21l-42 -42l-21 -42l-21 -273l-21 -42l-21 -378l-21 -210l-63 -20h-21l-21 272v21l42 693l-21 21l-21 105l-21 21l-42 21l-21 42l-21 42v42l-42 21l-21 84 l-21 21l-21 63l-42 21l-21 42l-42 21z" />
<glyph unicode="Z" horiz-adv-x="1449" d="M52 441l21 42l21 42l42 63l21 21l21 63l21 42l21 42l21 42l42 42l21 21l21 42l42 42l21 21l42 42l21 21l42 42l21 21l21 42l42 42l21 21l42 42l42 21l42 42l42 21l42 42l84 21l42 63l21 21l42 42l21 21l42 42l-84 21l-105 21l-84 21l-147 21l-42 21l-84 21l-210 21 l-84 21v63l21 21l126 21h210l105 -21l105 -21l42 -21l147 -21l84 -21l126 -21l42 -21l21 -42l21 -42l-21 -84l-63 -42l-21 -42l-21 -21l-63 -42v-21l-42 -42l-21 -42l-42 -21l-42 -21l-42 -21l-63 -42l-21 -21l-63 -42l-21 -42l-63 -42l-21 -42l-21 -21l-42 -42l-21 -42 l-63 -42v-21l-42 -42l-21 -42l-42 -42l-21 -42l-21 -42l-21 -42l-21 -42l-21 -42l189 -42l-189 21l798 -42l84 -21v21l105 -42l42 21l21 -21h21l42 -105l-42 -21h-252l-651 21h-168l-84 21h21l-126 21l-21 21v-21z" />
<glyph unicode="[" horiz-adv-x="861" d="M52 1008v21l42 483l-21 -189v315v-105l-21 294l21 21l21 21l147 21l42 21l378 -21l63 -21h21v-21l21 -21v-21l-21 -21l-357 -42l-21 21l-168 -21l21 -105l-21 63l42 -378l-21 273v-567v252l-21 -966l105 -42l-105 21l462 -42l126 -21l21 -84l-42 -21h-483h-147l-63 21z " />
<glyph unicode="\" horiz-adv-x="1029" d="M52 1869l42 42l42 -21l42 -42l21 -42l21 -63l21 -42l21 -63l21 -84l21 -84l21 -63l21 -42l21 -63l21 -42l21 -42l42 -105v-42l42 -42l21 -42l21 -63l21 -84l42 -42l21 -42l21 -63v-21l42 -63l21 -42l42 -63l21 -42l21 -42l21 -42l21 -42l21 -42l42 -42l21 -42l21 -42 l42 -42l-21 21v-84l-84 -21l-63 21l-21 42v21h-21l-21 84l-42 21l-21 42l-21 42l-21 42l-21 63l-42 21l-21 63l-21 42l-21 42l-21 105l-42 21l-21 42l-21 42l-21 126l-42 21l-21 42l-21 84l-21 42l-21 42l-21 63l-21 63l-21 63l-21 63l-21 84l-21 42l-21 63l-21 168v21h-21z " />
<glyph unicode="]" horiz-adv-x="1008" d="M52 1890l21 21h84l651 -21l63 -21l21 -42l21 -84l42 -420l-21 -42v-546l-21 -567l-21 -21h-105l-63 21l-147 21l-42 21h-84l-126 21l-21 42v21l21 42l231 21h42l42 -42v21l105 -42l42 1008v21v399l-42 21h-42v21h-609h-21z" />
<glyph unicode="^" horiz-adv-x="798" d="M52 1281l21 21l21 42l21 63l42 63l21 21l21 42l21 42l21 84l21 42l42 63l21 21l21 42l105 21l21 -21l21 -42l21 -42l21 -42l21 -63l21 -42l21 -105l21 -63l21 -42l21 -42l21 -42l21 -63l21 -42v-21l21 -105v-21l-105 -42l-21 21l-21 42l-21 42l-21 84l-21 63l-21 42 l-21 42l-21 84v-42l-21 168l-42 21l-21 84l-21 -63l-21 -42l-21 -42l-21 -42l-21 -42l-42 -42l-21 -42l-21 -42l-21 -42l-21 -42l-21 -21l-63 -42z" />
<glyph unicode="_" horiz-adv-x="1764" d="M52 1008l42 63l609 21h42l42 -21l861 -42l21 -21l42 -42l-21 -21v-21l-483 -42l-21 21l-882 21l-21 21h-210z" />
<glyph unicode="a" horiz-adv-x="945" d="M52 462l21 84l21 63l21 21l42 63v21l21 21l21 21l21 21l21 21l21 21l21 21l21 21l231 21h21l42 -63l21 -42l21 -42l21 -294l21 -84l42 -21l21 -42l42 -42l42 -42h21l42 -84l-21 -21h-84l-63 21l-21 42l-42 21v42l-42 21l-21 -42l-42 -21l-42 -42l-21 -21l-42 -21h-210 l-84 21l-63 21l-21 42v-21zM178 273l42 -21l63 -21h126h21l42 42l21 21l42 105v21v336h-147l-21 -21l-42 -42l-21 -21l-42 -21l-21 -42l-21 -42l-21 -84l-21 -63v-147z" />
<glyph unicode="b" horiz-adv-x="735" d="M52 1701l21 42h63l21 -189l21 -525l21 -126l210 -21l42 -21l42 -21l21 -21l42 -21l42 -42l21 -42l42 -42l21 -42v-273v-21l-21 -63l-42 -42l-21 -21l-42 -21l-42 -21l-84 -21l-210 21l-21 21l-63 21l-21 42l-21 84v-42l-21 567v-504zM199 420l21 -84l63 -21l42 -21h126 l42 21l21 21l42 63l-21 -42l42 189l-42 21l-21 42l-21 63l-42 21l-21 21l-84 42h-21l-105 -21l-21 -273v-42z" />
<glyph unicode="c" horiz-adv-x="777" d="M52 609l21 21l21 84l21 42l21 42l21 42l42 84l42 21l21 21l147 21h42l231 -42l21 -21v-21l21 -21v-21l-84 -42l-21 21h84h-126l-63 21h-63l-84 -21l-63 -42l-21 -63l-21 -42l-21 -42l-21 -42l-21 -42v-126l21 -63l21 -42l42 -21l21 -21l42 -21l84 -42l126 21l63 -21 l21 -42l-21 -63l-42 -21l-84 -21l-189 21l-21 42l-42 21l-63 21l-21 42l-63 21l-21 42v-21z" />
<glyph unicode="d" horiz-adv-x="756" d="M52 546l21 21l42 42l21 21l42 63l42 21l42 42l42 21l21 21l168 21l42 336v21l42 147l-21 -126l42 336v21l84 21l21 -21v-273l-21 -147l-21 -168v-693l-42 -42l-21 -21l-42 -42l-21 -21h-273l-42 21l-42 21l-42 21l-21 42h-21v21h-21zM199 399l21 -42l42 -21l42 -21 l42 -21h105l21 21l42 378l-42 21h-21l-42 -42l-21 -21l-42 -21l-42 -42l-21 -21l-42 -42v-21l-42 -42v-63z" />
<glyph unicode="e" horiz-adv-x="987" d="M52 714l21 42l21 42l21 63l42 42l42 21h21l42 42l21 21l294 21h42l42 -21l42 -21l21 -42l21 -42l21 -63l21 -42v-210l-21 -21l-42 -42l-21 -21l-273 -21l-63 -21l-84 -42v-21l42 -21l21 -42l42 -42l42 -42l42 -21l126 -21h42l63 21h21l21 21l63 21l42 42l42 21l21 -21 l21 -42v-84l-21 -21l-42 -21l-42 -21l-42 -21l-63 -21l-126 -21h-147h-42l-21 42l-42 21h-42l-21 42l-42 21l-21 63h-42l-21 63l-42 21l-21 126l-21 84v-21zM199 588v84l21 -105h21v21h105h-63l336 21l21 21v105l-21 42l-21 42l-21 42h-84l-126 -21l-21 -21l-63 -21l-42 -42 l-21 -42l-21 -84v-42z" />
<glyph unicode="f" horiz-adv-x="882" d="M52 840l21 21h84l21 -21l21 210l21 42l21 63l21 42l42 63l21 21l84 21l147 21l126 -21l42 -21l42 -21l21 -42l21 -21v-21l21 -42v-21l-105 -42l-21 42l-42 21l-21 42l-42 21h-105l-84 -21l-21 -42l-21 -42l-21 -63l-21 -42v-147l273 -21l21 -42v-63l-21 -21l-273 -21 v-315l21 -63v-294l-42 -20h-21l-21 209l-21 21l-21 105v-63l-21 462h-105v21h-21z" />
<glyph unicode="g" horiz-adv-x="840" d="M52 441l21 42l21 42l21 42l21 63l21 42l21 21l21 42l42 42l21 21l42 42l21 21l42 42l42 21l63 21h189l42 -21h21h42l21 -21v-420l-21 -399l-21 -104l-21 -189l-21 -84l-21 -126v-21l-42 -21l-42 -21l-63 -21l-252 -21l-21 42l-42 21l-42 21l-42 21l-21 42l21 63l-21 63 v21v-42l21 63l42 21l21 -21h21v-21l42 -63l21 -42h21h21l84 -42l-63 21h168l21 21l21 42l21 105l21 42l21 188l21 63h-84l-42 -21h-210h-147l-21 42h-21v21h-21l-21 84v-63zM199 273l21 -42l147 -21h63l42 21l63 21l42 63l21 21l21 42l21 84v210l-21 63v84h-84l-42 -21 l-63 -21l-21 -21l-42 -42l-21 -42l-21 -21l-42 -42l-21 -63l-21 -42l-21 -63l-21 -42v-126z" />
<glyph unicode="h" horiz-adv-x="735" d="M52 1407l21 357l21 21h42h-42l42 -21l42 -987v-21l21 42l21 42l42 42h210l42 -21l21 -42l21 -63l21 -42l21 -42l21 -63l21 -210l21 -273l21 -42v-42l-21 -21l-63 -21l-21 42l-42 21l-21 273l-21 210l-21 84l-21 84v21l-126 21l-21 -42l-21 -42l-21 -63l-21 -21v-21 l-21 -21l-21 -126v105l-21 -399v-42v-63l-84 -41l-21 20v-20z" />
<glyph unicode="i" horiz-adv-x="336" d="M52 1176l21 21l21 21l84 21l63 -21h21v-21l21 -147v-21l-210 -42zM94 756l42 42h42l21 -42l21 -735l-42 -41l-42 -21h-21z" />
<glyph unicode="j" horiz-adv-x="630" d="M52 357v21h63l21 -21l21 -42l21 -42l21 -42l42 -21l105 -42l42 84l-21 -84l42 504l21 252l21 21h42l21 -21l21 -105v-567l-21 -42l-21 -105l-21 -42l-231 -21l-21 42l-42 21h-42l-21 42l-42 21zM388 1260l21 63l42 21l63 -21l42 -21l21 -42v-84l-21 -21h-84h-42v21h-21z " />
<glyph unicode="k" horiz-adv-x="945" d="M52 189l21 630l-21 -210v1113l42 63h63l21 -42l21 -861h21l42 42l42 21l42 21l42 42l42 21l21 21l42 42l21 21l42 42l42 21l21 21l42 42l21 21h21l21 21l21 21l63 21l84 -21v-84l-21 -21l-63 -21l-21 -21l-42 -21l-42 -42l-21 -21l-42 -21v-63l21 -126l21 -42l21 -399 v-21l21 -273v-21l-105 -42l-21 42v-21l-21 252v-210l-21 546v21v252h-42l-21 -21l-21 -21l-63 -42l-21 -21l-42 -21l-21 -21l-42 -21l-21 -21l-42 -21l-42 -42l-21 -147l-21 -483v-42l-42 -41l-21 20v-20zM178 861h21h-21z" />
<glyph unicode="l" horiz-adv-x="661" d="M225 1722l42 21l42 -21l21 -42l21 -420l21 -42l21 -147l21 -42l21 -441l-21 126l42 -609l-84 -42l-21 21v-21l-21 378l-21 21l-21 315l-21 378v-126l-21 378z" />
<glyph unicode="m" horiz-adv-x="1260" d="M52 945l42 42h21l21 -21l42 -42h-21l42 -126h21l21 21l42 42l42 21l21 21l147 21l63 -21l42 -21l21 -42l21 -21l21 -42l21 -21h21v21l21 21l21 21l21 21l21 21l147 21h42l42 -21l21 -42l42 -21l21 -42l21 -42l21 -63l21 -105l21 -168v-21l21 -377v-21l-105 -42l-21 21 l-21 377l-21 168l-21 189l-63 21l-21 42l-63 21l-21 -21l-42 -42l-21 -105l-21 -504v-21l-63 -21h-21l-21 210v-189l-21 462l-42 21l-21 105v42l-42 21l-21 42l-21 42h-84l-42 -42l-21 -21l-42 -42l-21 -42l-21 -42l-21 -63l-21 -84v-84l21 -189l21 -147l-21 -62l-84 -42 l-21 21v-21l-21 167l-21 315v-105l-21 441z" />
<glyph unicode="n" horiz-adv-x="756" d="M52 294l42 147l-21 -42l42 525l21 63l21 21h21l42 -168l21 -21l42 42l21 21h21l21 21l105 21l42 21h21l42 -21l42 -21l21 -42l21 -42l21 -84l21 -42l21 -441v-210l-21 -21h-63l-42 21l-21 168l-21 441l-21 63l-21 63h-42l-63 -21l-42 -42l-21 -42l-21 -42l-21 -42 l-21 -42l-21 -105l-21 -231v-105l-42 -42l-84 -21h-21z" />
<glyph unicode="o" horiz-adv-x="819" d="M52 483l21 63l21 126l21 42l21 42l21 42l42 42l21 21l21 42l42 63l42 21l42 42l42 21h126l21 -21l42 -21l42 -21l42 -42l42 -21l21 -42l21 -42v-336v-21l-21 -21l-21 -126l-42 -42l-21 -42l-21 -42l-21 -42l-21 -21l-42 -42l-21 -21l-42 -21h-231l-42 21l-42 21l-63 21 l-21 42l-21 84v-21zM199 357l42 -84l42 -42l42 -21h84l42 21h21l21 63l42 63l21 21l21 63l21 84l21 294l-42 21l-42 21l-42 21h-63l-42 -42l-21 -42l-21 -21l-42 -42l-21 -42l-21 -63l-21 -42v-21v-21l-21 -105l-21 -42v-42z" />
<glyph unicode="p" horiz-adv-x="882" d="M52 -482l21 21l21 84l21 105l21 84l21 335l42 504l21 21v126l42 21h-21l399 21l42 -21l42 -42l21 -42l21 -42l21 -42l21 -42l21 -84v-168l-21 -42l-21 -21v-21v-21l-21 -21l-21 -63l-63 -42l-21 -63l-42 -42l-21 -21h-252l-63 21l-21 -251l-21 -63l-21 -84l-21 -63 l-21 -84l-21 -42l-63 -21v21h-21zM304 189l84 -42l63 -21l63 21l42 84l42 21l21 42l21 21l21 42l21 42v84l-21 105l-21 84l-42 21h21l-168 21l-21 -84l-21 -21l-42 -21h-21l-21 -105v84z" />
<glyph unicode="q" horiz-adv-x="1050" d="M52 462l42 126l21 21l42 63l21 21l42 42l21 21l42 42l21 21l273 21l42 -42l42 -21l42 -42l21 -42l21 -42l21 -84l21 -42v-231l-21 -147l-21 -147l-21 -83l-21 -42l-21 -189l-21 -63v-126l42 42l21 21l42 42l21 21l42 42l21 21l42 42l42 21h21l42 -42v-84l-21 -21l-42 -21 l-42 -42l-21 -42l-63 -42l-21 -21l-42 -42l-168 -21h-21l-21 273v21l42 252l21 21l21 104v105l-21 -21l-42 -42l-21 -42l-252 -21l-189 21l-21 42v-21zM178 252l21 -84h252l21 21l42 42l21 21l21 42l42 63l21 21v231v42l-42 21v63h-147l-42 -21l-63 -42l-21 -21l-42 -42 l-21 -63l-42 -42l-21 -84v-168z" />
<glyph unicode="r" horiz-adv-x="756" d="M52 630l21 336l42 21h21l21 -42l21 -189v-21l21 21l21 21l21 21l21 21l210 21l63 -21l42 -21l63 -21l21 -42h21v-21h21l-21 -84h-63l-42 21l-63 21v42h-147l-42 -42l-21 -42l-42 -42l-21 -63l-21 -126l-21 -105v-231l-42 -42l-63 -21h-21z" />
<glyph unicode="s" horiz-adv-x="714" d="M52 273l21 21h63l42 -21l21 -21l21 -42l21 -42l42 -21h42l42 21l42 42l-21 -21l42 168l-21 21l-21 63h-21v21l-84 21l-21 42v42l-42 21l-63 21v210l21 84l42 42l21 21l63 21h147l42 -21l84 -42l42 -21l21 -42l21 -42v-21l-21 -63l-42 -21l-21 21v63l-42 21l-63 21l-42 21 h-63l-63 -42l-21 -105l42 -42l42 -42l42 -21l21 -21l42 -21l21 -42l21 -63l21 -42v-252v-21l-42 -42l-21 -21l-42 -42l-21 -21l-63 -21h-105l-42 21l-42 21l-42 21v63l-42 21v-21z" />
<glyph unicode="t" horiz-adv-x="798" d="M52 1050l21 21l147 21l42 168l-21 -168l42 420l21 21l42 -42l-21 42l42 -420l336 -42l21 -21v-21l21 -21v-21l-378 -42l-21 -147v-42l21 -630l-21 -63l-42 -21h-42l-21 21l-21 21l21 840v21l-147 21l-21 21z" />
<glyph unicode="u" horiz-adv-x="945" d="M52 588l21 84l21 231l42 42l21 21h42h-42l42 -21l42 -42l-21 -21l-21 -42l21 -210l-21 -42v-273l21 -42l21 -42l21 -42h42l63 -42l42 42l21 21l42 84l21 21l21 42l21 63l21 84l21 84l21 42l21 231l21 105l42 21h42l21 -21l21 -504l21 -126l21 -63l21 -42l21 -63l21 -42 l21 -42l-21 -84h-84l-42 21l-21 42l-21 84l-21 21l-21 105l-21 -21l-42 -42l-21 -42l-21 -21l-42 -42l-21 -42l-42 -21h-147l-84 21l-42 21l-42 21l-21 105h-21v21h-21z" />
<glyph unicode="v" horiz-adv-x="777" d="M52 966l21 42h63l21 -42l21 -105l21 -105l21 -84l21 -42l21 -126l21 -84l21 -105l21 -105l21 42l21 84l21 63l21 42l21 42l21 42l21 42l21 63l21 63l21 42l21 42l21 42l42 63v21l63 21l21 -21l21 -42v-84l-21 -42l-21 -42l-21 -42l-21 -63l-21 -105l-42 -42l-21 -42 l-21 -63l-21 -63l-21 -42l-21 -63l-21 -42l-21 -42l-21 -42l-21 -62l-21 -21h-84l-42 21l-21 41l-21 63l-21 63l-21 189l-21 21l-21 231l-21 21l-21 189v-84z" />
<glyph unicode="w" horiz-adv-x="1323" d="M52 966l21 21l84 21l21 -42l21 -63l21 -147v-42l42 -252l21 -42l21 -105l21 -42h21l21 42l21 63l42 63l21 21l42 84l-21 -21l42 126l21 21l42 42h84l21 -42l42 -42l21 -42l21 -42l21 -21l21 -42l42 -42l21 -42l21 -21l21 -42l21 42l21 21l42 168l21 21l21 84l21 42l21 84 l42 63v21l21 21l84 21l42 -42l-21 42v-126l-42 -42l-21 -105l-21 -42l-21 -63l-21 -42l-21 -42v-21l-21 -84l-21 -105l-42 -42l-21 -63l-21 -21l-147 -21l-21 42l-21 84l-21 63l-21 42l-42 21v42l-42 21v63l-42 21l-21 -63l-21 -42l-21 -42l-42 -42v-42l-42 -42l-21 -42 l-21 -42l-21 -21l-168 -42l-21 63l-42 21l-21 189l-21 21l-21 231l-21 63l-21 84v-21z" />
<glyph unicode="x" horiz-adv-x="987" d="M52 1008l21 42h63l21 -42l42 -42l42 -42l21 -42l42 -21l21 -42l21 -42l42 -21l42 -21l21 -42l42 -21l21 -42l42 -21l21 -21l42 63l21 21l42 63l21 21l42 63l21 21l42 63l21 21l84 -21v-147l-21 -21l-42 -42l-21 -21l-42 -42l-21 -42l-21 -21l-21 -21v-21l-21 -21l-21 -63 l21 -42l21 -42l42 -42l21 -42l21 -42l42 -42l21 -42l21 -84l21 -21v-21l21 -62v-21l-105 -42l-21 63l-42 21l-21 104l-21 21l-42 21l-21 63l-21 42l-21 63l-63 21l-21 -21l-21 -21l-42 -42l-21 -21l-42 -42l-21 -21l-42 -42l-21 -21l-42 -42l-21 -42l-105 -41l-21 62v-62 l21 125l21 21l21 42l42 42l21 21l42 63l21 21l42 42l21 21l42 42l21 21l21 42v42l-42 21l-21 42l-42 21l-21 42h-42l-21 42l-42 21l-21 63l-42 21l-21 63l-42 21l-21 42l-21 42z" />
<glyph unicode="y" horiz-adv-x="1008" d="M52 -209l42 63l21 21l42 42l21 21l42 42l21 20l42 42l21 21l21 42l42 63l21 21v126l-21 63v42l-42 21l-21 105l-21 21l-21 63h-21v21h-21l-21 126v21l63 21h42l21 -42l21 -42l42 -63l21 -42l21 -42l21 -63l21 -42l42 -21l21 -42l21 42l21 42l21 63l21 21l21 42l21 42 l21 42l21 21l21 42l21 42l42 42v21l21 21l21 21l63 21h21l42 -126l-42 -42l-21 -42l-42 -42l-21 -63l-42 -42l-21 -42l-21 -42l-21 -63l-42 -42l-21 -63l-21 -63l-42 -42l-21 -42l-42 -42l-21 -42l-42 -42l-21 -42l-21 -41l-21 -21l-42 -42l-21 -21l-42 -42l-21 -21l-42 -21 l-21 -42l-42 -21l-105 -21z" />
<glyph unicode="z" horiz-adv-x="861" d="M52 294l21 21l42 21l21 21l42 42l21 21l21 42l21 21l42 63l21 21l42 42l42 21l21 42l21 42l42 21l21 21l42 63l-84 21h-357v21h-21l-21 84v21h42h-21l294 21l126 -21l84 -21v21l126 -42h21l42 -105l-42 -42l-21 -21l-42 -42l-21 -21l-42 -42l-21 -21l-42 -21l-21 -42 l-42 -42l-21 -21l-42 -42l-21 -21l-21 -21v-21l-21 -21l-21 -21l-21 -84l399 -42l42 21h21l21 -21l21 -42v-63l-21 -21h-525l-42 21l-42 21h-63v21h-21h-21z" />
<glyph unicode="{" horiz-adv-x="861" d="M52 1008l42 42l63 21l42 42l42 21l42 42l-42 21l-21 42l-21 42l-21 42l-21 126v-42l-21 210v21l21 84l21 21l21 42l21 42l21 42l42 42l42 21l42 21l42 21h231l42 -42v-63l-21 -21l-189 -21l-42 -21l-42 -21l-42 -21l-21 -63l-21 -42l-21 -42l-21 -42v-21l42 -42h-21 l42 -126l21 -42l21 -63l21 -42l21 -42l21 -21l-21 -126l-42 -21l-42 -21l-63 -42l21 -21l21 -42l21 -42l21 -441l21 -63l21 -21l21 -42l42 -21l63 -21l252 -21l42 -42v-63l-21 -21l-147 -21l-252 21l-21 42l-42 21l-42 21l-21 42l-21 42l-21 63v-21l-21 378l-21 126l-42 21 l-21 42h-21v21h-21z" />
<glyph unicode="}" horiz-adv-x="777" d="M52 105l21 42h84l42 42h21l42 42l21 21l21 42l21 42l21 42l42 84v21v294l21 63l21 21l42 42l42 21v42l-21 42h-21v21h-21l-21 147l21 63l21 21l42 63l21 21l21 105v231l-21 42l-21 42l-21 42l-42 21l-42 21l-63 21l-84 21l-21 42v63l21 21h126l42 -21l63 -21l63 -21 l21 -42l42 -21l21 -42l21 -42l21 -63l21 -42l21 -273l-42 -42l-21 -105l-21 -42l-42 -42l-21 -63l21 -21l21 -42h21v-21l42 -168l-42 -42l-21 -21l-42 -21l-21 -21l-42 -42v-42v-273l-21 -42l-21 -42l-21 -42l-21 -63l-21 -42l-21 -21l-42 -21l-42 -42l-21 -21l-42 -21 l-168 -21z" />
<glyph unicode="~" horiz-adv-x="1092" d="M52 1239l21 42l21 21l21 42l21 21l21 42l42 42v21l21 21l21 21l21 21l21 21l189 21h42l21 -42l42 -21l21 -42l21 -63l21 -42l42 -21l42 -21h84l21 21h21l21 21l42 168v21l63 21l21 -21l21 -42l21 -105l-21 -63l-42 -42l-21 -21l-42 -42l-21 -21l-42 -21l-21 -21l-105 -21 v21h-21l-63 21l-21 42l-42 21l-21 42l-42 21l-21 84h-21v21l-84 21h63l-126 -21l-21 -63l-42 -21l-21 -42l-21 -21l-21 -21v-21l-21 -21l-21 -63l-63 -42l-21 21v-21z" />
<glyph horiz-adv-x="840" />
<glyph unicode="&#xad;" d="M38 405v21h210l315 21l84 -21v21l147 -42h21v-21l21 -63v-21l-231 -42l-21 21h-420v21h-84h-21z" />
<glyph unicode="&#xe0;" horiz-adv-x="945" d="M52 462l21 84l21 63l21 21l42 63v21l21 21l21 21l21 21l21 21l21 21l21 21l21 21l231 21h21l42 -63l21 -42l21 -42l21 -294l21 -84l42 -21l21 -42l42 -42l42 -42h21l42 -84l-21 -21h-84l-63 21l-21 42l-42 21v42l-42 21l-21 -42l-42 -21l-42 -42l-21 -21l-42 -21h-210 l-84 21l-63 21l-21 42v-21zM178 273l42 -21l63 -21h126h21l42 42l21 21l42 105v21v336h-147l-21 -21l-42 -42l-21 -21l-42 -21l-21 -42l-21 -42l-21 -84l-21 -63v-147z" />
<glyph unicode="&#xe7;" horiz-adv-x="777" d="M52 609l21 21l21 84l21 42l21 42l21 42l42 84l42 21l21 21l147 21h42l231 -42l21 -21v-21l21 -21v-21l-84 -42l-21 21h84h-126l-63 21h-63l-84 -21l-63 -42l-21 -63l-21 -42l-21 -42l-21 -42l-21 -42v-126l21 -63l21 -42l42 -21l21 -21l42 -21l84 -42l126 21l63 -21 l21 -42l-21 -63l-42 -21l-84 -21l-189 21l-21 42l-42 21l-63 21l-21 42l-63 21l-21 42v-21z" />
<glyph unicode="&#xe9;" horiz-adv-x="987" d="M52 714l21 42l21 42l21 63l42 42l42 21h21l42 42l21 21l294 21h42l42 -21l42 -21l21 -42l21 -42l21 -63l21 -42v-210l-21 -21l-42 -42l-21 -21l-273 -21l-63 -21l-84 -42v-21l42 -21l21 -42l42 -42l42 -42l42 -21l126 -21h42l63 21h21l21 21l63 21l42 42l42 21l21 -21 l21 -42v-84l-21 -21l-42 -21l-42 -21l-42 -21l-63 -21l-126 -21h-147h-42l-21 42l-42 21h-42l-21 42l-42 21l-21 63h-42l-21 63l-42 21l-21 126l-21 84v-21zM199 588v84l21 -105h21v21h105h-63l336 21l21 21v105l-21 42l-21 42l-21 42h-84l-126 -21l-21 -21l-63 -21l-42 -42 l-21 -42l-21 -84v-42z" />
<glyph unicode="&#x2000;" horiz-adv-x="1060" />
<glyph unicode="&#x2001;" horiz-adv-x="2121" />
<glyph unicode="&#x2002;" horiz-adv-x="1060" />
<glyph unicode="&#x2003;" horiz-adv-x="2121" />
<glyph unicode="&#x2004;" horiz-adv-x="707" />
<glyph unicode="&#x2005;" horiz-adv-x="530" />
<glyph unicode="&#x2006;" horiz-adv-x="353" />
<glyph unicode="&#x2007;" horiz-adv-x="353" />
<glyph unicode="&#x2008;" horiz-adv-x="265" />
<glyph unicode="&#x2009;" horiz-adv-x="424" />
<glyph unicode="&#x200a;" horiz-adv-x="117" />
<glyph unicode="&#x2010;" d="M38 405v21h210l315 21l84 -21v21l147 -42h21v-21l21 -63v-21l-231 -42l-21 21h-420v21h-84h-21z" />
<glyph unicode="&#x2011;" d="M38 405v21h210l315 21l84 -21v21l147 -42h21v-21l21 -63v-21l-231 -42l-21 21h-420v21h-84h-21z" />
<glyph unicode="&#x2012;" d="M38 405v21h210l315 21l84 -21v21l147 -42h21v-21l21 -63v-21l-231 -42l-21 21h-420v21h-84h-21z" />
<glyph unicode="&#x2013;" d="M27 405v21h210l315 21l84 -21v21l147 -42h21v-21l21 -63v-21l-231 -42l-21 21h-420v21h-84h-21z" />
<glyph unicode="&#x2014;" horiz-adv-x="2153" d="M38 405v21h539l808 21l216 -21v21l377 -42h54v-21l54 -63v-21l-593 -42l-54 21h-1078v21h-215h-54z" />
<glyph unicode="&#x2018;" horiz-adv-x="252" d="M52 768l21 189l21 126v21l63 21l21 -21l21 -42v-336l-21 -63v-21l-84 -21h-21z" />
<glyph unicode="&#x2019;" horiz-adv-x="252" d="M52 768l21 189l21 126v21l63 21l21 -21l21 -42v-336l-21 -63v-21l-84 -21h-21z" />
<glyph unicode="&#x201c;" horiz-adv-x="651" d="M52 1332l21 210l42 42h21l21 -21l21 -42v-231v-63l-21 -126l-42 -21l-21 -21v21h-21zM483 1491v21h84l21 -42l21 -273l-21 -126l-63 -21v21h-21z" />
<glyph unicode="&#x201d;" horiz-adv-x="651" d="M30 982l21 210l42 42h21l21 -21l21 -42v-231v-63l-21 -126l-42 -21l-21 -21v21h-21zM461 1141v21h84l21 -42l21 -273l-21 -126l-63 -21v21h-21z" />
<glyph unicode="&#x2026;" d="M27 405v21h210l315 21l84 -21v21l147 -42h21v-21l21 -63v-21l-231 -42l-21 21h-420v21h-84h-21z" />
<glyph unicode="&#x202f;" horiz-adv-x="424" />
<glyph unicode="&#x205f;" horiz-adv-x="530" />
<glyph unicode="&#x25fc;" horiz-adv-x="1050" d="M0 0v1050h1050v-1050h-1050z" />
</font>
</defs>
</svg>
